<?xml version="1.0" encoding="utf-8"?>
<svg viewBox="0 0 500 500" xmlns="http://www.w3.org/2000/svg">
  <path d="M 363.858 121.047 L 478.107 235.296 C 484.806 241.995 488.62 251.205 488.62 260.695 C 488.62 270.185 484.806 279.396 478.107 286.094 L 363.858 400.344 C 357.903 406.298 349.902 409.554 341.529 409.554 C 324.131 409.554 309.989 395.413 309.989 378.015 L 309.989 320.239 L 190.902 320.239 C 174.434 320.239 161.13 306.935 161.13 290.467 L 161.13 230.923 C 161.13 214.456 174.434 201.151 190.902 201.151 L 309.989 201.151 L 309.989 143.376 C 309.989 125.978 324.131 111.836 341.529 111.836 C 349.902 111.836 357.903 115.185 363.858 121.047 Z M 161.13 111.836 L 101.587 111.836 C 85.119 111.836 71.815 125.14 71.815 141.608 L 71.815 379.783 C 71.815 396.25 85.119 409.554 101.587 409.554 L 161.13 409.554 C 177.598 409.554 190.902 422.859 190.902 439.326 C 190.902 455.794 177.598 469.098 161.13 469.098 L 101.587 469.098 C 52.277 469.098 12.271 429.092 12.271 379.783 L 12.271 141.608 C 12.271 92.298 52.277 52.292 101.587 52.292 L 161.13 52.292 C 177.598 52.292 190.902 65.597 190.902 82.064 C 190.902 98.532 177.598 111.836 161.13 111.836 Z" style="fill: rgb(255, 255, 255);"/>
</svg>